<svg width="28" height="28" viewBox="0 0 28 28" fill="none" xmlns="http://www.w3.org/2000/svg">
<path d="M24 0H4C1.79086 0 0 1.79086 0 4V24C0 26.2091 1.79086 28 4 28H24C26.2091 28 28 26.2091 28 24V4C28 1.79086 26.2091 0 24 0Z" fill="black"/>
<path d="M10.5724 15.2565C10.5724 17.5025 9.6613 19.3778 8.17805 21.1047H11.6319V22.7786H6.33459V21.1895C7.95557 19.3566 8.58066 17.8628 8.58066 15.2565H10.5724Z" fill="white"/>
<path d="M17.4275 15.2565C17.4275 17.5025 18.3386 19.3778 19.8219 21.1047H16.368V22.7786H21.6653V21.1895C20.0443 19.3566 19.4193 17.8628 19.4193 15.2565H17.4275Z" fill="white"/>
<path d="M10.5724 12.7435C10.5724 10.4975 9.66129 8.62224 8.17805 6.89532H11.6319V5.22137H6.33459V6.81056C7.95556 8.64343 8.58064 10.1373 8.58064 12.7435H10.5724Z" fill="white"/>
<path d="M17.4275 12.7435C17.4275 10.4975 18.3386 8.62223 19.8219 6.89531H16.368V5.22137H21.6653V6.81055C20.0443 8.64342 19.4193 10.1373 19.4193 12.7435H17.4275Z" fill="white"/>
</svg>
