<svg width="16" height="16" viewBox="0 0 16 16" fill="none" xmlns="http://www.w3.org/2000/svg">
<path d="M9.02699 1.42523C9.63966 1.42523 10.2284 1.66389 10.6676 2.09107C10.9217 2.33822 11.1138 2.64288 11.228 2.9785C11.3421 3.31404 11.3757 3.67178 11.3249 4.02253C11.6804 3.97202 12.0427 4.00365 12.3839 4.11522C12.7252 4.22681 13.0367 4.4152 13.2937 4.666L13.3203 4.6937C13.5353 4.90278 13.7064 5.15256 13.8232 5.42878C13.9399 5.70513 14 6.00237 14 6.30236C14 6.60238 13.9399 6.89957 13.8232 7.17594C13.7064 7.45219 13.5353 7.70193 13.3203 7.91103L8.57209 12.5676C8.55783 12.5815 8.54577 12.5983 8.538 12.6166C8.53022 12.635 8.52628 12.6553 8.52628 12.6752C8.52628 12.6952 8.53022 12.7154 8.538 12.7338C8.54578 12.7521 8.55781 12.769 8.57209 12.7828L9.54688 13.7395C9.58985 13.7813 9.62475 13.8313 9.64808 13.8865C9.67133 13.9417 9.68324 14.0014 9.68324 14.0612C9.68321 14.1212 9.6714 14.1808 9.64808 14.236C9.62473 14.2912 9.58988 14.3412 9.54688 14.383C9.45903 14.4683 9.34121 14.5161 9.21875 14.5161C9.09629 14.5161 8.97844 14.4683 8.89062 14.383L7.91584 13.4263C7.8154 13.3287 7.73492 13.2123 7.6804 13.0833C7.62591 12.9543 7.59837 12.8152 7.59837 12.6752C7.59841 12.5355 7.62605 12.397 7.6804 12.2683C7.73492 12.1393 7.81539 12.0218 7.91584 11.9242L12.6641 7.26756C12.793 7.14202 12.8956 6.99127 12.9656 6.82545C13.0354 6.65984 13.072 6.4821 13.0721 6.30236C13.0721 6.12243 13.0355 5.94399 12.9656 5.77821C12.8956 5.61239 12.793 5.46164 12.6641 5.3361L12.6374 5.30946C12.3743 5.05335 12.0213 4.91039 11.6541 4.90996C11.2868 4.90966 10.9334 5.05261 10.6697 5.3084L6.75781 9.14469L6.70348 9.19902C6.61559 9.28459 6.49695 9.33219 6.37429 9.33219C6.25178 9.3321 6.13396 9.28448 6.04616 9.19902C6.00325 9.15729 5.96937 9.10713 5.94602 9.05201C5.92271 8.99682 5.91091 8.9372 5.91087 8.87729C5.91087 8.81733 5.92271 8.75782 5.94602 8.70258C5.96932 8.64741 6.00327 8.59734 6.04616 8.55556L10.0135 4.66493C10.1421 4.53931 10.2442 4.38855 10.3139 4.22282C10.3836 4.05721 10.4195 3.87938 10.4194 3.69973C10.4192 3.52008 10.3827 3.34215 10.3129 3.17665C10.2429 3.01105 10.1402 2.86101 10.0114 2.7356C9.74782 2.47911 9.39475 2.33503 9.02699 2.33503C8.65931 2.33509 8.30611 2.47916 8.04261 2.7356L2.79261 7.88439C2.70486 7.96969 2.58685 8.01744 2.46449 8.01756C2.34209 8.01756 2.2242 7.96962 2.13636 7.88439C2.09338 7.84259 2.0585 7.7926 2.03516 7.73738C2.01183 7.68217 2.00003 7.62259 2 7.56266C2 7.50274 2.01187 7.44316 2.03516 7.38795C2.0585 7.33267 2.09335 7.28276 2.13636 7.24093L7.38636 2.09107C7.8255 1.66381 8.41429 1.42529 9.02699 1.42523Z" fill="#121417"/>
<path d="M9.02699 3.2459C9.14962 3.2459 9.26723 3.29355 9.35511 3.37907C9.39813 3.4209 9.43297 3.47081 9.45632 3.52608C9.47961 3.5813 9.49148 3.64087 9.49148 3.7008C9.49145 3.76075 9.47965 3.82029 9.45632 3.87552C9.43297 3.93076 9.39811 3.98072 9.35511 4.02253L5.47195 7.83113C5.34305 7.95661 5.24043 8.10646 5.17045 8.27218C5.10045 8.438 5.06392 8.61633 5.06392 8.79633C5.06393 8.9763 5.10046 9.15467 5.17045 9.32047C5.24044 9.48618 5.34305 9.63605 5.47195 9.76153C5.73547 10.018 6.0886 10.1621 6.45632 10.1621C6.82406 10.1621 7.17715 10.018 7.4407 9.76153L11.3239 5.95293C11.4116 5.86754 11.5295 5.81987 11.652 5.81976C11.7746 5.81976 11.8933 5.86737 11.9812 5.95293C12.0242 5.99477 12.058 6.04574 12.0813 6.10101C12.1045 6.15601 12.1164 6.21499 12.1165 6.27466C12.1165 6.33453 12.1046 6.39422 12.0813 6.44938C12.058 6.50466 12.0242 6.55563 11.9812 6.59746L8.09695 10.405C7.65767 10.8323 7.06914 11.0719 6.45632 11.0719C5.84354 11.0719 5.25495 10.8323 4.8157 10.405C4.60075 10.1959 4.42956 9.94612 4.31286 9.66991C4.19612 9.39355 4.13602 9.09633 4.13601 8.79633C4.13601 8.4963 4.19611 8.19912 4.31286 7.92275C4.42955 7.64651 4.60075 7.39676 4.8157 7.18766L8.69886 3.37907C8.78672 3.29354 8.90438 3.24594 9.02699 3.2459Z" fill="#121417"/>
</svg>
