<svg width="32" height="32" viewBox="0 0 32 32" fill="none" xmlns="http://www.w3.org/2000/svg">
<g clip-path="url(#clip0_5_1386)">
<path fill-rule="evenodd" clip-rule="evenodd" d="M-0.285645 5.51771C-0.285645 2.46857 2.19664 0 5.25836 0H26.3281C29.3898 0 31.8709 2.46971 31.8709 5.51771V23.3486C31.8709 26.5006 27.8629 27.8686 25.9189 25.3806L19.8412 17.5989V27.0343C19.8412 29.7771 17.6069 32 14.8504 32H5.25836C2.19664 32 -0.285645 29.5303 -0.285645 26.4823V5.51771ZM5.25836 4.41371C4.96513 4.41371 4.68386 4.52988 4.47609 4.73679C4.26832 4.9437 4.15099 5.2245 4.14978 5.51771V26.4823C4.14978 27.0926 4.64693 27.5863 5.25836 27.5863H15.0172C15.3235 27.5863 15.4058 27.3394 15.4058 27.0343V14.3829C15.4058 11.2286 19.4138 9.86171 21.3578 12.3497L27.4366 20.1314V5.51771C27.4366 4.90743 27.4938 4.41371 26.8824 4.41371H5.25836Z" fill="#12FFF7"/>
<path fill-rule="evenodd" clip-rule="evenodd" d="M-0.285645 5.51771C-0.285645 2.46857 2.19664 0 5.25836 0H26.3281C29.3898 0 31.8709 2.46971 31.8709 5.51771V23.3486C31.8709 26.5006 27.8629 27.8686 25.9189 25.3806L19.8412 17.5989V27.0343C19.8412 29.7771 17.6069 32 14.8504 32H5.25836C2.19664 32 -0.285645 29.5303 -0.285645 26.4823V5.51771ZM5.25836 4.41371C4.96513 4.41371 4.68386 4.52988 4.47609 4.73679C4.26832 4.9437 4.15099 5.2245 4.14978 5.51771V26.4823C4.14978 27.0926 4.64693 27.5863 5.25836 27.5863H15.0172C15.3235 27.5863 15.4058 27.3394 15.4058 27.0343V14.3829C15.4058 11.2286 19.4138 9.86171 21.3578 12.3497L27.4366 20.1314V5.51771C27.4366 4.90743 27.4938 4.41371 26.8824 4.41371H5.25836Z" fill="url(#paint0_linear_5_1386)"/>
<path fill-rule="evenodd" clip-rule="evenodd" d="M-0.285645 5.51771C-0.285645 2.46857 2.19664 0 5.25836 0H26.3281C29.3898 0 31.8709 2.46971 31.8709 5.51771V23.3486C31.8709 26.5006 27.8629 27.8686 25.9189 25.3806L19.8412 17.5989V27.0343C19.8412 29.7771 17.6069 32 14.8504 32H5.25836C2.19664 32 -0.285645 29.5303 -0.285645 26.4823V5.51771ZM5.25836 4.41371C4.96513 4.41371 4.68386 4.52988 4.47609 4.73679C4.26832 4.9437 4.15099 5.2245 4.14978 5.51771V26.4823C4.14978 27.0926 4.64693 27.5863 5.25836 27.5863H15.0172C15.3235 27.5863 15.4058 27.3394 15.4058 27.0343V14.3829C15.4058 11.2286 19.4138 9.86171 21.3578 12.3497L27.4366 20.1314V5.51771C27.4366 4.90743 27.4938 4.41371 26.8824 4.41371H5.25836Z" fill="url(#paint1_linear_5_1386)"/>
<path d="M26.3278 0C29.3895 0 31.8707 2.46971 31.8707 5.51771V23.3486C31.8707 26.5006 27.8627 27.8686 25.9187 25.3806L19.8398 17.5989V27.0343C19.8398 29.7771 17.6067 32 14.8501 32C14.9227 32.0002 14.9947 31.986 15.0619 31.9583C15.129 31.9307 15.1901 31.8901 15.2416 31.8388C15.293 31.7875 15.3339 31.7266 15.3618 31.6596C15.3898 31.5925 15.4042 31.5206 15.4044 31.448V14.3817C15.4044 11.2297 19.4135 9.86172 21.3587 12.3509L27.4364 20.1314V1.10286C27.4349 0.809837 27.3174 0.529333 27.1097 0.32267C26.9019 0.116007 26.6208 -3.8928e-06 26.3278 0Z" fill="#B9FFB3"/>
</g>
<defs>
<linearGradient id="paint0_linear_5_1386" x1="31.8721" y1="32" x2="3.75207" y2="-0.137139" gradientUnits="userSpaceOnUse">
<stop stop-color="#B9FFB3"/>
<stop offset="1" stop-color="#B9FFB3" stop-opacity="0"/>
</linearGradient>
<linearGradient id="paint1_linear_5_1386" x1="31.8721" y1="32" x2="12.7966" y2="24.544" gradientUnits="userSpaceOnUse">
<stop stop-color="#1A1A1A" stop-opacity="0.9"/>
<stop offset="1" stop-color="#1A1A1A" stop-opacity="0"/>
</linearGradient>
<clipPath id="clip0_5_1386">
<rect width="32" height="32" fill="white"/>
</clipPath>
</defs>
</svg>
